<?xml version="1.0" standalone="no"?>
<!DOCTYPE svg PUBLIC "-//W3C//DTD SVG 20010904//EN"
 "http://www.w3.org/TR/2001/REC-SVG-20010904/DTD/svg10.dtd">
<svg version="1.0" xmlns="http://www.w3.org/2000/svg"
 width="241.000000pt" height="227.000000pt" viewBox="0 0 241.000000 227.000000"
 preserveAspectRatio="xMidYMid meet">

<g transform="translate(0.000000,227.000000) scale(0.100000,-0.100000)"
fill="#000000" stroke="none">
<path d="M411 2259 c-195 -33 -368 -209 -400 -409 -15 -88 -15 -1342 0 -1430
33 -205 204 -376 409 -409 88 -15 1482 -15 1570 0 205 33 376 204 409 409 15
88 15 1342 0 1430 -33 205 -204 376 -409 409 -81 13 -1500 13 -1579 0z m1063
-436 c130 -127 236 -238 236 -246 0 -19 -121 -147 -139 -147 -8 0 -70 55 -138
122 l-123 122 0 -212 0 -212 33 0 c48 0 129 -24 186 -56 95 -51 169 -156 186
-261 l7 -43 -140 0 -140 0 -23 47 c-40 81 -122 119 -239 111 -114 -8 -185 -63
-216 -164 -19 -65 -18 -226 2 -295 62 -206 382 -228 463 -30 l13 31 140 0 141
0 -7 -43 c-18 -117 -122 -245 -234 -287 -182 -69 -438 -62 -600 18 -151 74
-242 248 -242 467 0 220 86 382 243 460 55 27 90 37 144 42 l72 6 3 208 c2
115 3 209 2 209 -1 0 -52 -52 -114 -115 -63 -63 -123 -118 -134 -121 -16 -5
-34 8 -83 60 -35 36 -63 74 -63 83 0 9 105 122 233 250 214 215 234 234 263
231 26 -2 73 -44 268 -235z"/>
</g>
</svg>
